<mxfile host="Electron" modified="2025-01-15T02:12:04.220Z" agent="Mozilla/5.0 (Windows NT 10.0; Win64; x64) AppleWebKit/537.36 (KHTML, like Gecko) draw.io/22.1.21 Chrome/120.0.6099.109 Electron/28.1.0 Safari/537.36" etag="R4tdUWQrp7G7pefIifgB" version="22.1.21" type="device">
  <diagram name="第 1 页" id="mD95yYDHaqjVn5OMoTTo">
    <mxGraphModel dx="1434" dy="836" grid="1" gridSize="10" guides="1" tooltips="1" connect="1" arrows="1" fold="1" page="1" pageScale="1" pageWidth="827" pageHeight="1169" math="0" shadow="0">
      <root>
        <mxCell id="0" />
        <mxCell id="1" parent="0" />
        <mxCell id="TWPr9VwaXR8g0SciKpuR-2" value="FileSystemResource" style="rounded=1;whiteSpace=wrap;html=1;" vertex="1" parent="1">
          <mxGeometry x="160" y="620" width="120" height="60" as="geometry" />
        </mxCell>
        <mxCell id="TWPr9VwaXR8g0SciKpuR-3" value="ClassPathResource" style="rounded=1;whiteSpace=wrap;html=1;" vertex="1" parent="1">
          <mxGeometry x="320" y="620" width="120" height="60" as="geometry" />
        </mxCell>
        <mxCell id="TWPr9VwaXR8g0SciKpuR-4" value="UrlResource" style="rounded=1;whiteSpace=wrap;html=1;" vertex="1" parent="1">
          <mxGeometry x="480" y="620" width="120" height="60" as="geometry" />
        </mxCell>
        <mxCell id="TWPr9VwaXR8g0SciKpuR-6" value="DefaultResourceLoader" style="rounded=1;whiteSpace=wrap;html=1;verticalAlign=top;" vertex="1" parent="1">
          <mxGeometry x="293.5" y="370" width="173" height="80" as="geometry" />
        </mxCell>
        <mxCell id="TWPr9VwaXR8g0SciKpuR-26" style="edgeStyle=orthogonalEdgeStyle;rounded=0;orthogonalLoop=1;jettySize=auto;html=1;exitX=0.5;exitY=1;exitDx=0;exitDy=0;" edge="1" parent="1" source="TWPr9VwaXR8g0SciKpuR-11" target="TWPr9VwaXR8g0SciKpuR-2">
          <mxGeometry relative="1" as="geometry" />
        </mxCell>
        <mxCell id="TWPr9VwaXR8g0SciKpuR-27" style="edgeStyle=orthogonalEdgeStyle;rounded=0;orthogonalLoop=1;jettySize=auto;html=1;exitX=0.5;exitY=1;exitDx=0;exitDy=0;" edge="1" parent="1" source="TWPr9VwaXR8g0SciKpuR-11" target="TWPr9VwaXR8g0SciKpuR-3">
          <mxGeometry relative="1" as="geometry" />
        </mxCell>
        <mxCell id="TWPr9VwaXR8g0SciKpuR-28" style="edgeStyle=orthogonalEdgeStyle;rounded=0;orthogonalLoop=1;jettySize=auto;html=1;exitX=0.5;exitY=1;exitDx=0;exitDy=0;" edge="1" parent="1" source="TWPr9VwaXR8g0SciKpuR-11" target="TWPr9VwaXR8g0SciKpuR-4">
          <mxGeometry relative="1" as="geometry" />
        </mxCell>
        <mxCell id="TWPr9VwaXR8g0SciKpuR-11" value="Resource&lt;br style=&quot;border-color: var(--border-color);&quot;&gt;资源句柄" style="rounded=0;whiteSpace=wrap;html=1;" vertex="1" parent="1">
          <mxGeometry x="320" y="520" width="120" height="60" as="geometry" />
        </mxCell>
        <mxCell id="TWPr9VwaXR8g0SciKpuR-25" style="edgeStyle=orthogonalEdgeStyle;rounded=0;orthogonalLoop=1;jettySize=auto;html=1;exitX=0.5;exitY=1;exitDx=0;exitDy=0;" edge="1" parent="1" source="TWPr9VwaXR8g0SciKpuR-12" target="TWPr9VwaXR8g0SciKpuR-6">
          <mxGeometry relative="1" as="geometry" />
        </mxCell>
        <mxCell id="TWPr9VwaXR8g0SciKpuR-12" value="ResourceLoader&lt;br style=&quot;border-color: var(--border-color);&quot;&gt;资源加载器" style="rounded=0;whiteSpace=wrap;html=1;" vertex="1" parent="1">
          <mxGeometry x="320" y="240" width="120" height="60" as="geometry" />
        </mxCell>
        <mxCell id="TWPr9VwaXR8g0SciKpuR-22" style="edgeStyle=orthogonalEdgeStyle;rounded=0;orthogonalLoop=1;jettySize=auto;html=1;exitX=0.5;exitY=1;exitDx=0;exitDy=0;entryX=0.5;entryY=0;entryDx=0;entryDy=0;" edge="1" parent="1" source="TWPr9VwaXR8g0SciKpuR-13" target="TWPr9VwaXR8g0SciKpuR-9">
          <mxGeometry relative="1" as="geometry" />
        </mxCell>
        <mxCell id="TWPr9VwaXR8g0SciKpuR-13" value="ProtocolResolver&lt;br style=&quot;border-color: var(--border-color);&quot;&gt;协议解析器" style="rounded=0;whiteSpace=wrap;html=1;" vertex="1" parent="1">
          <mxGeometry x="521.5" y="240" width="120" height="60" as="geometry" />
        </mxCell>
        <mxCell id="TWPr9VwaXR8g0SciKpuR-16" value="" style="group" vertex="1" connectable="0" parent="1">
          <mxGeometry x="516.5" y="370" width="150" height="80" as="geometry" />
        </mxCell>
        <mxCell id="TWPr9VwaXR8g0SciKpuR-9" value="ProtocolResolverImpl" style="rounded=1;whiteSpace=wrap;html=1;" vertex="1" parent="TWPr9VwaXR8g0SciKpuR-16">
          <mxGeometry width="130" height="60" as="geometry" />
        </mxCell>
        <mxCell id="TWPr9VwaXR8g0SciKpuR-14" value="ProtocolResolverImpl" style="rounded=1;whiteSpace=wrap;html=1;" vertex="1" parent="TWPr9VwaXR8g0SciKpuR-16">
          <mxGeometry x="10" y="10" width="130" height="60" as="geometry" />
        </mxCell>
        <mxCell id="TWPr9VwaXR8g0SciKpuR-15" value="ProtocolResolverImpl" style="rounded=1;whiteSpace=wrap;html=1;" vertex="1" parent="TWPr9VwaXR8g0SciKpuR-16">
          <mxGeometry x="20" y="20" width="130" height="60" as="geometry" />
        </mxCell>
        <mxCell id="TWPr9VwaXR8g0SciKpuR-17" value="#getResource" style="rounded=1;whiteSpace=wrap;html=1;" vertex="1" parent="1">
          <mxGeometry x="315" y="405" width="130" height="30" as="geometry" />
        </mxCell>
        <mxCell id="TWPr9VwaXR8g0SciKpuR-24" style="edgeStyle=orthogonalEdgeStyle;rounded=0;orthogonalLoop=1;jettySize=auto;html=1;exitX=0;exitY=0.5;exitDx=0;exitDy=0;entryX=1;entryY=0.5;entryDx=0;entryDy=0;dashed=1;" edge="1" parent="1" source="TWPr9VwaXR8g0SciKpuR-9" target="TWPr9VwaXR8g0SciKpuR-17">
          <mxGeometry relative="1" as="geometry" />
        </mxCell>
      </root>
    </mxGraphModel>
  </diagram>
</mxfile>
